<svg width="332" height="309" viewBox="0 0 332 309" fill="none" xmlns="http://www.w3.org/2000/svg">
<path d="M306.009 38.7748H41.9907C41.4245 38.7627 40.9754 38.2939 40.9875 37.7278C40.9992 37.1787 41.4416 36.7363 41.9907 36.7246H306.009C306.575 36.7367 307.025 37.2055 307.012 37.7716C307.001 38.3207 306.558 38.7631 306.009 38.7748Z" fill="#CACACA"/>
<path d="M263.46 53.2627H243.927C242.46 53.2627 241.27 54.4521 241.27 55.9192V55.9192C241.27 57.3864 242.46 58.5757 243.927 58.5757H263.46C264.927 58.5757 266.116 57.3864 266.116 55.9192C266.116 54.4521 264.927 53.2627 263.46 53.2627Z" fill="#F4B064"/>
<path d="M231.309 63.8887H276.078C277.546 63.8887 278.735 65.078 278.735 66.5452C278.735 68.0123 277.546 69.2017 276.078 69.2017H231.309C229.842 69.2017 228.652 68.0123 228.652 66.5452C228.652 65.078 229.842 63.8887 231.309 63.8887Z" fill="#E6E6E6"/>
<path d="M276.078 74.5151H231.309C229.842 74.5151 228.652 75.7045 228.652 77.1716V77.1716C228.652 78.6388 229.842 79.8282 231.309 79.8282H276.078C277.546 79.8282 278.735 78.6388 278.735 77.1716C278.735 75.7045 277.546 74.5151 276.078 74.5151Z" fill="#E6E6E6"/>
<path d="M50.0187 197.425H37.6877C37.3564 197.425 35.531 196.459 35.531 195.268V188.418C35.472 183.237 52.4339 182.898 52.4978 188.418V195.268C52.4979 196.459 51.2098 197.425 50.0187 197.425Z" fill="#E6E6E6"/>
<path d="M50.6568 183.776C50.0586 183.562 49.4234 183.471 48.7892 183.508C48.9588 183.452 49.1146 183.36 49.2465 183.24C49.1306 183.235 49.0153 183.22 48.9023 183.194C48.7778 183.17 48.6605 183.118 48.5601 183.04C48.4591 182.961 48.4051 182.836 48.4166 182.708C48.4396 182.551 48.586 182.422 48.571 182.264C48.5538 182.084 48.3453 181.996 48.2337 181.853C48.094 181.631 48.118 181.344 48.2926 181.148C48.3986 181.025 48.5284 180.924 48.6741 180.852C48.428 180.789 48.1693 180.792 47.9251 180.863C48.1869 180.66 48.3032 180.321 48.221 180.001C48.0828 179.601 47.7547 179.297 47.3462 179.19C46.9432 179.088 46.526 179.055 46.112 179.09C46.4639 178.982 46.4109 178.431 46.1418 178.179C45.8728 177.928 45.488 177.823 45.2343 177.556C44.9806 177.289 45.0012 176.72 45.3667 176.675L45.3217 176.545C44.5938 176.273 43.7833 176.643 43.5114 177.371C43.4882 177.434 43.4694 177.497 43.4551 177.562C43.3882 177.98 43.5129 178.441 43.3036 178.808C43.0367 179.276 42.3888 179.329 41.8526 179.277C41.3261 179.142 40.7676 179.218 40.2966 179.49C39.9071 179.814 39.8543 180.393 40.1788 180.782C40.3588 180.998 40.6281 181.12 40.9093 181.112C40.5565 181.115 40.2053 181.161 39.8639 181.25L40.1927 181.378C40.2658 181.4 40.3334 181.438 40.3907 181.489C40.4484 181.542 40.4661 181.626 40.4349 181.698C40.3823 181.793 40.2465 181.79 40.1389 181.774L39.424 181.666C39.5662 181.714 39.643 181.867 39.5955 182.01C39.5481 182.152 39.3944 182.229 39.2522 182.181C39.2157 182.169 39.1822 182.149 39.154 182.123C39.2274 182.209 39.2864 182.306 39.3288 182.411C39.3708 182.517 39.3584 182.638 39.2956 182.734C39.1503 182.867 38.9363 182.893 38.7633 182.798C38.7051 182.776 38.6465 182.75 38.5875 182.726C38.5887 182.747 38.5903 182.768 38.5927 182.788C38.6322 183.063 38.7852 183.308 39.0145 183.465C38.6904 183.502 38.392 183.66 38.1775 183.905C37.8054 184.368 37.783 185.02 38.1224 185.507C37.7617 185.347 37.3666 185.282 36.9737 185.316C36.57 185.366 36.2674 185.71 36.2699 186.117C36.3349 186.615 36.952 186.797 37.4507 186.859C41.3725 187.342 45.3387 187.341 49.2604 186.858C49.7931 186.822 50.3149 186.689 50.8001 186.466C51.291 186.234 51.6287 185.767 51.6953 185.228C51.6742 184.578 51.2644 184.005 50.6568 183.776V183.776Z" fill="#F4B064"/>
<path d="M53.5678 189.548C53.4784 189.161 53.1322 188.886 52.7343 188.888C52.3553 188.898 52.0165 189.169 51.6443 189.11C51.3352 189.061 51.0924 188.791 50.7816 188.832C50.4969 188.87 50.3438 189.148 50.1313 189.298H49.586C49.3737 189.13 49.2694 188.792 48.975 188.697C48.5315 188.554 48.1757 189.054 47.7113 189.143C47.4424 189.173 47.1708 189.121 46.9318 188.994C46.6979 188.867 46.444 188.781 46.181 188.74C45.9449 188.704 45.7094 188.808 45.5757 189.006C45.5901 188.864 45.4061 188.725 45.2193 188.716C45.0105 188.724 44.8075 188.786 44.6306 188.898C44.4531 189.009 44.2478 189.067 44.0384 189.067C43.5744 189.027 43.3468 188.484 42.8803 188.479C42.293 188.471 42.058 189.308 41.4772 189.236C41.1752 189.199 41.0123 188.925 40.743 188.808C40.4573 188.72 40.1522 188.717 39.8648 188.799L38.4912 189.056C38.0886 189.168 37.6639 189.172 37.2592 189.068C36.9646 188.962 36.6784 188.731 36.3746 188.819C36.11 188.895 35.9808 189.192 35.7006 189.207C35.5216 189.185 35.3491 189.126 35.1938 189.034C34.8968 188.929 34.5657 189.012 34.3541 189.246C34.2003 189.872 34.1754 190.523 34.2809 191.16C34.2767 191.295 34.2875 191.431 34.3129 191.564L35.6945 197.093C35.8569 197.941 36.2762 198.554 37.1395 198.554H50.5671C51.4304 198.554 52.1721 197.941 52.3345 197.093L53.716 191.564C53.7188 191.55 53.7205 191.536 53.7229 191.521C53.7556 190.86 53.7035 190.197 53.5678 189.548H53.5678Z" fill="#CCCCCC"/>
<path opacity="0.2" d="M37.1505 189.132L37.419 192.622C37.5085 193.785 37.376 194.932 37.4655 196.095C37.5159 196.751 37.7883 197.422 37.8387 198.077C37.8446 198.154 37.9656 198.155 37.9596 198.077L37.6911 194.587L37.4227 191.098L37.2714 189.132C37.2655 189.055 37.1446 189.055 37.1505 189.132L37.1505 189.132Z" fill="black"/>
<path opacity="0.2" d="M39.4823 189.27L39.5869 192.709L39.6916 196.148L39.7503 198.078C39.7527 198.156 39.8736 198.156 39.8712 198.078L39.7666 194.64L39.662 191.201L39.6032 189.27C39.6009 189.193 39.48 189.192 39.4823 189.27Z" fill="black"/>
<path opacity="0.2" d="M41.7415 189.477L41.7097 192.8L41.6781 196.103L41.6602 197.977C41.6613 198.01 41.6893 198.036 41.7227 198.035C41.7545 198.034 41.78 198.008 41.7811 197.977L41.8129 194.653L41.8445 191.35L41.8624 189.477C41.8613 189.443 41.8333 189.417 41.7999 189.418C41.7681 189.42 41.7426 189.445 41.7415 189.477Z" fill="black"/>
<path opacity="0.2" d="M43.4482 189.375L43.5144 192.739L43.5802 196.083L43.6174 197.977C43.6186 198.011 43.6466 198.037 43.68 198.036C43.7117 198.034 43.7372 198.009 43.7383 197.977L43.6722 194.613L43.6064 191.269L43.5691 189.375C43.568 189.341 43.54 189.315 43.5066 189.316C43.4748 189.318 43.4493 189.343 43.4482 189.375V189.375Z" fill="black"/>
<path opacity="0.2" d="M45.9354 189.237L46.0111 192.691L46.0867 196.145L46.1291 198.078C46.1302 198.112 46.1582 198.138 46.1916 198.137C46.2234 198.136 46.2489 198.11 46.25 198.078L46.1743 194.624L46.0987 191.17L46.0563 189.237C46.0549 189.203 46.0267 189.177 45.9933 189.179C45.9619 189.18 45.9367 189.205 45.9354 189.237Z" fill="black"/>
<path opacity="0.2" d="M48.0001 189.342L48.2638 192.822L48.5267 196.292L48.6749 198.248C48.6807 198.325 48.8016 198.326 48.7958 198.248L48.5321 194.768L48.2691 191.298L48.121 189.342C48.1152 189.265 47.9942 189.264 48.0001 189.342V189.342Z" fill="black"/>
<path opacity="0.2" d="M50.2944 189.747L50.4534 192.932C50.5064 193.993 50.237 195.055 50.29 196.116L50.3793 197.904C50.3832 197.982 50.5041 197.982 50.5002 197.904C50.4472 196.843 50.7166 195.781 50.6636 194.72L50.5046 191.535L50.4154 189.747C50.4115 189.67 50.2906 189.669 50.2944 189.747Z" fill="black"/>
<path d="M43.289 181.023C43.545 181.023 43.7525 180.878 43.7525 180.7C43.7525 180.522 43.545 180.378 43.289 180.378C43.0331 180.378 42.8256 180.522 42.8256 180.7C42.8256 180.878 43.0331 181.023 43.289 181.023Z" fill="#E6E6E6"/>
<path d="M46.231 181.748C46.4869 181.748 46.6944 181.604 46.6944 181.425C46.6944 181.247 46.4869 181.103 46.231 181.103C45.975 181.103 45.7675 181.247 45.7675 181.425C45.7675 181.604 45.975 181.748 46.231 181.748Z" fill="#2196F3"/>
<path d="M42.1203 183.32C42.3762 183.32 42.5837 183.175 42.5837 182.997C42.5837 182.819 42.3762 182.675 42.1203 182.675C41.8643 182.675 41.6568 182.819 41.6568 182.997C41.6568 183.175 41.8643 183.32 42.1203 183.32Z" fill="#FF6584"/>
<path d="M45.953 183.745C46.1149 183.745 46.2462 183.654 46.2462 183.541C46.2462 183.429 46.1149 183.337 45.953 183.337C45.7911 183.337 45.6598 183.429 45.6598 183.541C45.6598 183.654 45.7911 183.745 45.953 183.745Z" fill="#E6E6E6"/>
<path d="M47.8124 184.204C47.9743 184.204 48.1056 184.112 48.1056 184C48.1056 183.887 47.9743 183.796 47.8124 183.796C47.6505 183.796 47.5192 183.887 47.5192 184C47.5192 184.112 47.6505 184.204 47.8124 184.204Z" fill="#2196F3"/>
<path d="M45.2144 185.197C45.3763 185.197 45.5076 185.106 45.5076 184.993C45.5076 184.88 45.3763 184.789 45.2144 184.789C45.0525 184.789 44.9212 184.88 44.9212 184.993C44.9212 185.106 45.0525 185.197 45.2144 185.197Z" fill="#FF6584"/>
<path d="M48.6936 184.874C48.8555 184.874 48.9868 184.782 48.9868 184.67C48.9868 184.557 48.8555 184.466 48.6936 184.466C48.5317 184.466 48.4004 184.557 48.4004 184.67C48.4004 184.782 48.5317 184.874 48.6936 184.874Z" fill="#E6E6E6"/>
<path d="M50.5528 185.332C50.7147 185.332 50.846 185.24 50.846 185.128C50.846 185.015 50.7147 184.924 50.5528 184.924C50.3909 184.924 50.2596 185.015 50.2596 185.128C50.2596 185.24 50.3909 185.332 50.5528 185.332Z" fill="#2196F3"/>
<path d="M47.9549 186.325C48.1168 186.325 48.2481 186.234 48.2481 186.121C48.2481 186.009 48.1168 185.917 47.9549 185.917C47.793 185.917 47.6617 186.009 47.6617 186.121C47.6617 186.234 47.793 186.325 47.9549 186.325Z" fill="#FF6584"/>
<path d="M41.1434 183.798C41.1655 183.638 41.0929 183.496 40.9814 183.48C40.8698 183.465 40.7614 183.582 40.7393 183.743C40.7172 183.903 40.7897 184.046 40.9013 184.061C41.0129 184.076 41.1213 183.959 41.1434 183.798Z" fill="#E6E6E6"/>
<path d="M40.4354 185.578C40.4575 185.417 40.3849 185.275 40.2734 185.259C40.1618 185.244 40.0534 185.362 40.0313 185.522C40.0092 185.682 40.0817 185.825 40.1933 185.84C40.3049 185.856 40.4133 185.738 40.4354 185.578Z" fill="#2196F3"/>
<path d="M39.8059 182.868C39.828 182.708 39.7555 182.565 39.6439 182.55C39.5323 182.535 39.4239 182.652 39.4018 182.813C39.3797 182.973 39.4523 183.115 39.5639 183.131C39.6754 183.146 39.7838 183.029 39.8059 182.868Z" fill="#FF6584"/>
<path d="M44.3272 182.831C44.3493 182.671 44.2767 182.528 44.1651 182.513C44.0536 182.498 43.9452 182.615 43.9231 182.775C43.901 182.936 43.9735 183.078 44.0851 183.094C44.1967 183.109 44.3051 182.992 44.3272 182.831Z" fill="#E6E6E6"/>
<path d="M43.6192 184.61C43.6413 184.45 43.5688 184.308 43.4572 184.292C43.3456 184.277 43.2372 184.394 43.2151 184.555C43.193 184.715 43.2656 184.858 43.3772 184.873C43.4887 184.888 43.5971 184.771 43.6192 184.61Z" fill="#2196F3"/>
<path d="M42.9897 181.901C43.0118 181.741 42.9393 181.598 42.8277 181.583C42.7161 181.567 42.6078 181.685 42.5857 181.845C42.5636 182.006 42.6361 182.148 42.7477 182.164C42.8593 182.179 42.9676 182.061 42.9897 181.901Z" fill="#FF6584"/>
<path d="M45.1899 180.861C45.212 180.701 45.1395 180.559 45.0279 180.543C44.9163 180.528 44.8079 180.645 44.7858 180.806C44.7637 180.966 44.8362 181.109 44.9478 181.124C45.0594 181.139 45.1678 181.022 45.1899 180.861Z" fill="#2196F3"/>
<path d="M44.5615 178.153C44.5836 177.993 44.511 177.85 44.3995 177.835C44.2879 177.819 44.1795 177.937 44.1574 178.097C44.1353 178.258 44.2078 178.4 44.3194 178.416C44.431 178.431 44.5394 178.313 44.5615 178.153Z" fill="#FF6584"/>
<path d="M157.342 146.351C159.71 146.351 161.63 145.015 161.63 143.368C161.63 141.721 159.71 140.385 157.342 140.385C154.974 140.385 153.054 141.721 153.054 143.368C153.054 145.015 154.974 146.351 157.342 146.351Z" fill="#E6E6E6"/>
<path d="M184.56 153.062C186.929 153.062 188.848 151.727 188.848 150.08C188.848 148.432 186.929 147.097 184.56 147.097C182.192 147.097 180.273 148.432 180.273 150.08C180.273 151.727 182.192 153.062 184.56 153.062Z" fill="#2196F3"/>
<path d="M146.529 167.604C148.897 167.604 150.817 166.268 150.817 164.621C150.817 162.974 148.897 161.638 146.529 161.638C144.161 161.638 142.241 162.974 142.241 164.621C142.241 166.268 144.161 167.604 146.529 167.604Z" fill="#FF6584"/>
<path d="M207.34 181.975C208.837 181.975 210.05 181.131 210.05 180.09C210.05 179.049 208.837 178.205 207.34 178.205C205.844 178.205 204.63 179.049 204.63 180.09C204.63 181.131 205.844 181.975 207.34 181.975Z" fill="#E6E6E6"/>
<path d="M224.542 186.217C226.039 186.217 227.252 185.373 227.252 184.331C227.252 183.29 226.039 182.446 224.542 182.446C223.046 182.446 221.832 183.29 221.832 184.331C221.832 185.373 223.046 186.217 224.542 186.217Z" fill="#2196F3"/>
<path d="M137.486 172.031C137.69 170.548 137.02 169.231 135.988 169.089C134.957 168.947 133.955 170.034 133.751 171.516C133.547 172.999 134.217 174.316 135.249 174.458C136.28 174.6 137.282 173.513 137.486 172.031Z" fill="#E6E6E6"/>
<path d="M130.938 188.494C131.142 187.011 130.471 185.694 129.44 185.552C128.409 185.41 127.407 186.496 127.203 187.979C126.998 189.462 127.669 190.779 128.7 190.921C129.732 191.063 130.733 189.976 130.938 188.494Z" fill="#2196F3"/>
<path d="M125.114 163.428C125.318 161.946 124.648 160.628 123.616 160.486C122.585 160.344 121.583 161.431 121.379 162.914C121.175 164.396 121.845 165.713 122.877 165.855C123.908 165.998 124.91 164.911 125.114 163.428Z" fill="#FF6584"/>
<path d="M166.943 163.083C167.147 161.6 166.477 160.283 165.445 160.141C164.414 159.999 163.412 161.086 163.208 162.568C163.004 164.051 163.674 165.368 164.706 165.51C165.737 165.652 166.739 164.566 166.943 163.083Z" fill="#E6E6E6"/>
<path d="M154.57 154.48C154.774 152.997 154.103 151.68 153.072 151.538C152.041 151.396 151.039 152.483 150.835 153.965C150.63 155.448 151.301 156.765 152.332 156.907C153.364 157.049 154.365 155.963 154.57 154.48Z" fill="#FF6584"/>
<path d="M269.092 298.992C269.835 299.026 270.465 298.451 270.499 297.708C270.518 297.311 270.36 296.926 270.068 296.656C270.034 296.521 270.01 296.425 269.976 296.289C270.708 294.429 272.81 293.515 274.67 294.247C275.582 294.607 276.31 295.321 276.686 296.226C278.283 299.964 280.349 303.832 279.322 307.949C286.11 293.562 283.801 275.666 273.769 263.363C270.906 261.841 268.856 259.138 268.164 255.97C269.536 256.435 271.247 255.319 270.215 253.873C269.768 253.321 269.316 252.773 268.869 252.22C274.082 246.668 280.294 255.394 274.555 262.887C276.433 265.241 278.058 267.784 279.407 270.476C279.095 267.618 279.467 264.726 280.491 262.04C281.529 259.536 283.474 257.428 285.187 255.263C286.454 253.64 288.796 253.35 290.42 254.617C291.224 255.244 291.736 256.174 291.837 257.19C289.915 257.821 289.665 260.598 291.864 260.978C291.183 267.301 287.319 272.837 281.618 275.656C283.687 281.46 284.495 287.639 283.988 293.781C284.977 286.603 292.681 284.862 298.066 282.009C299.042 281.383 300.339 281.667 300.965 282.642C301.248 283.084 301.355 283.616 301.266 284.134C300.522 284.436 299.811 284.811 299.142 285.254C298.303 285.818 298.08 286.956 298.644 287.795C298.95 288.251 299.446 288.545 299.993 288.597C297.278 295.315 290.26 299.826 283.052 299.801C282.36 302.811 281.356 305.741 280.058 308.543H269.36C269.322 308.424 269.287 308.302 269.252 308.183C270.243 308.245 271.237 308.186 272.213 308.006C269.593 304.904 267.567 303.322 269.091 298.992L269.092 298.992V298.992Z" fill="#F2F2F2"/>
<path d="M59.6247 298.831C58.8814 298.866 58.2512 298.291 58.217 297.547C58.1988 297.151 58.3566 296.766 58.6483 296.496L58.7406 296.129C58.0084 294.269 55.907 293.355 54.0469 294.087C53.1344 294.446 52.4068 295.161 52.0304 296.066C50.4337 299.803 48.3673 303.672 49.395 307.789C42.6068 293.402 44.9153 275.506 54.9473 263.203C57.8107 261.681 59.8605 258.978 60.553 255.81C59.1806 256.275 57.4695 255.159 58.5014 253.713C58.9486 253.161 59.4002 252.613 59.8475 252.06C54.6343 246.508 48.4229 255.234 54.1611 262.727C52.284 265.081 50.658 267.624 49.3098 270.316C49.6211 267.457 49.2495 264.566 48.2255 261.88C47.1877 259.376 45.2424 257.268 43.5294 255.103C42.2629 253.48 39.9202 253.19 38.2967 254.457C37.4922 255.084 36.9801 256.014 36.8796 257.029C38.8018 257.661 39.0515 260.438 36.8528 260.818C37.5332 267.141 41.3977 272.677 47.0982 275.496C45.0295 281.3 44.2216 287.479 44.7286 293.621C43.7398 286.443 36.0352 284.701 30.6501 281.849C29.6749 281.223 28.3774 281.507 27.752 282.482C27.4686 282.924 27.3612 283.456 27.451 283.973C28.1942 284.276 28.9056 284.651 29.5747 285.094C30.414 285.658 30.6369 286.796 30.0726 287.635C29.766 288.091 29.271 288.385 28.724 288.437C31.4384 295.155 38.4564 299.666 45.6642 299.641C46.3568 302.651 47.3604 305.58 48.6588 308.383H59.3566C59.395 308.264 59.4295 308.141 59.464 308.023C58.4738 308.085 57.4797 308.026 56.5039 307.846C59.1237 304.744 61.1498 303.162 59.625 298.832L59.6247 298.831H59.6247Z" fill="#F2F2F2"/>
<path d="M86.4272 173.59L85.2893 166.995L102.589 159.183L106.325 152.568C105.963 150.829 107.08 149.127 108.819 148.765C110.558 148.404 112.261 149.52 112.622 151.259C112.905 152.621 112.281 154.011 111.075 154.703L104.929 164.205L86.4272 173.59V173.59Z" fill="#A0616A"/>
<path d="M81.1689 168.198L88.959 164.219L91.0217 171.963L85.6101 175.974L81.1689 168.198Z" fill="#2196F3"/>
<path d="M63.6871 299.82H68.3973L70.6381 281.651H63.6866L63.6871 299.82Z" fill="#A0616A"/>
<path d="M69.965 300.244V297.051L68.7267 297.126L63.6858 297.425L62.5191 297.497L61.6272 308.192L61.5795 308.765H64.9241L65.0316 308.196L65.5174 305.608L66.7717 308.196L67.0464 308.765H75.9137C77.0119 308.758 77.8998 307.868 77.9046 306.77C78.2789 305.022 70.9047 301.244 69.965 300.244V300.244Z" fill="#647380"/>
<path d="M7.88666 282.861L11.7378 285.573L24.0333 272.011L18.3494 268.007L7.88666 282.861Z" fill="#A0616A"/>
<path d="M12.9123 286.476L14.7514 283.866L13.6955 283.214L9.40249 280.555L8.40747 279.942L1.51894 288.172L1.14966 288.613L3.88396 290.539L4.29976 290.135L6.18742 288.299L5.72225 291.138L5.61894 291.761L12.8681 296.868C13.7699 297.495 15.0081 297.279 15.6445 296.384C16.9572 295.17 13.1049 287.834 12.9123 286.476H12.9123Z" fill="#647380"/>
<path d="M70.9705 182.232L64.9074 179.397L52.8164 194.03L45.4516 195.892C43.8691 195.086 41.9324 195.715 41.1258 197.297C40.3192 198.88 40.9482 200.816 42.5307 201.623C43.7699 202.255 45.2747 202.018 46.2604 201.037L57.0448 197.609L70.9705 182.232V182.232Z" fill="#A0616A"/>
<path d="M64.8578 205.802C64.8578 205.802 54.9099 212.28 57.5403 216.584C57.6311 216.732 36.3506 246.277 36.3506 246.277L12.4879 272.004L20.6907 279.461C20.6907 279.461 43.3603 255.854 47.1634 251.869C50.9664 247.884 67.5774 227.949 67.5774 227.949L68.1884 252.586L61.8294 286.726L71.3241 286.124L80.5655 251.873L83.9766 213.076L64.8578 205.802L64.8578 205.802Z" fill="#647380"/>
<path d="M71.9438 166.924L67.7605 170.095L62.9924 180.271L67.5774 186.498C67.5774 186.498 71.4341 193.182 65.2608 199.655C59.0875 206.128 54.347 213.042 59.2882 212.795C64.2293 212.548 84.2415 222.727 84.3732 214.388C84.5049 206.049 84.7714 199.655 84.7714 199.655L90.0181 186.348C90.0181 186.348 93.144 178.409 90.9493 176.033C88.7546 173.656 85.8162 170.62 85.8162 170.62L80.4724 165.276H75.6472L71.9438 166.924V166.924Z" fill="#2196F3"/>
<path d="M79.753 147.372C89.1379 152.712 81.4334 166.803 71.8735 161.785C62.4889 156.445 70.1934 142.354 79.753 147.372V147.372Z" fill="#A0616A"/>
<path d="M84.7714 150.332C84.1138 151.187 82.7399 150.786 80.0495 151.397C80.0553 150.485 79.95 149.575 79.7357 148.689C79.5355 149.787 79.0969 150.827 78.4506 151.736C76.1144 151.995 78.9783 159.093 77.7821 164.311C76.2409 153.302 72.9993 156.186 74.637 158.37C75.6854 159.768 74.9864 163.961 71.8413 161.864C66.6519 164.331 59.2606 152.079 67.4524 146.334C67.306 143.228 70.7617 142.737 72.8896 143.692C78.0539 139.845 83.954 144.775 84.7714 150.332V150.332Z" fill="#647380"/>
<path d="M60.6917 142.3C58.6023 155.146 47.4031 139.937 42.1373 152.579C40.4817 157.158 43.3223 160.433 45.1191 164.233C45.5292 167.356 41.4664 168.94 41.0408 171.815C40.9224 178.406 51.5553 178.003 54.5278 173.844C57.5821 169.492 53.9349 163.651 55.7707 158.979C58.351 152.493 68.8444 152.444 69.7585 144.898C67.9881 142.376 63.2275 139.489 60.6917 142.3Z" fill="#647380"/>
<path d="M69.1559 143.555C69.0876 143.584 69.0192 143.612 68.9581 143.645H68.9545C68.8969 143.674 68.8394 143.702 68.7818 143.735C68.7746 143.738 68.771 143.742 68.7638 143.746C68.6883 143.674 68.6127 143.602 68.5336 143.53C68.5131 143.647 68.518 143.767 68.548 143.882L68.5587 143.925C68.6307 144.001 68.7062 144.073 68.7854 144.148C68.8574 144.094 68.9257 144.037 68.9976 143.983C69.0408 143.947 69.084 143.911 69.1308 143.875C69.138 143.781 69.1488 143.674 69.1595 143.555L69.1559 143.555H69.1559ZM71.3217 139.554C69.7172 139.187 69.1991 141.285 69.0444 142.296C68.4616 138.626 66.0368 139.781 66.8751 142.285C67.1423 143.026 67.5627 143.703 68.109 144.271C68.1846 144.357 68.2674 144.443 68.3537 144.53C68.2565 145.033 68.7458 144.904 69.4078 144.44C69.8966 144.092 70.3486 143.696 70.7569 143.256C72.0772 141.871 73.1061 140.018 71.3217 139.554H71.3217ZM71.3721 141.619C70.8771 142.258 70.3217 142.847 69.7136 143.379C69.5229 143.551 69.3286 143.717 69.1308 143.875C69.1272 143.907 69.1272 143.936 69.1236 143.961C69.1097 143.996 69.0928 144.03 69.0732 144.062C68.8717 144.425 68.6451 144.228 68.5587 143.925C68.5515 143.915 68.5408 143.904 68.5336 143.893C68.2461 143.596 67.996 143.265 67.7889 142.907C66.303 140.331 68.6955 138.579 68.5767 143.389C68.5549 143.434 68.5403 143.481 68.5336 143.53C68.5131 143.647 68.518 143.767 68.548 143.882L68.5587 143.925C68.6307 144.001 68.7062 144.073 68.7854 144.149C68.8574 144.095 68.9257 144.037 68.9976 143.983C69.0408 143.947 69.084 143.911 69.1308 143.875C69.138 143.782 69.1487 143.674 69.1595 143.555V143.551C69.2531 142.587 69.5085 140.853 69.9798 140.382C71.0159 139.587 72.3578 140.447 71.3721 141.619L71.3721 141.619H71.3721ZM69.156 143.555C69.0876 143.584 69.0192 143.612 68.9581 143.645H68.9545C68.897 143.674 68.8394 143.702 68.7818 143.735C68.7746 143.738 68.771 143.742 68.7638 143.746C68.6883 143.674 68.6127 143.602 68.5336 143.53C68.5131 143.647 68.518 143.767 68.548 143.882L68.5588 143.925C68.6307 144.001 68.7063 144.073 68.7854 144.148C68.8574 144.094 68.9257 144.037 68.9977 143.983C69.0408 143.947 69.084 143.911 69.1308 143.875C69.138 143.781 69.1488 143.674 69.1596 143.555L69.1559 143.555H69.156Z" fill="#647380"/>
<path d="M266.788 300.574L262.181 301.622L255.945 284.351L262.745 282.804L266.788 300.574Z" fill="#FFB6B6"/>
<path d="M268.044 305.343L253.876 308.567L253.836 308.388C253.143 305.342 255.05 302.312 258.095 301.619L258.095 301.619L260.237 299.066L265.512 299.931L266.748 299.65L268.044 305.343V305.343Z" fill="#647380"/>
<path d="M326.865 291.495L322.886 294.043L311.166 279.907L317.039 276.146L326.865 291.495Z" fill="#FFB6B6"/>
<path d="M329.663 295.556L317.427 303.39L317.328 303.236C315.644 300.605 316.411 297.108 319.041 295.424L319.041 295.423L320.19 292.297L325.447 291.323L326.515 290.639L329.663 295.556V295.556Z" fill="#647380"/>
<path d="M263.721 214.537L260.255 223.576L243.995 255.649L258.283 292.96L265.656 291.013L259.579 255.649L277.015 234.463L287.138 256.231L316.221 288.296L322.933 283.822L301.307 250.638L286.906 208.555L263.721 214.537Z" fill="#647380"/>
<path d="M281.21 171.899L275.505 165.769L265.717 164.423L253.725 172.818L253.846 182.111L259.774 204.008C259.774 204.008 257.516 219.741 263.823 219.583C270.13 219.425 273.568 216.281 276.137 216.921C278.706 217.561 289.626 220.285 290.318 217.432C291.01 214.578 294.689 216.621 294.528 213.922C294.366 211.222 284.569 191.764 284.569 191.764L286.283 178.068C286.661 175.054 284.524 172.306 281.51 171.929C281.411 171.916 281.311 171.906 281.21 171.899L281.21 171.899V171.899Z" fill="#2196F3"/>
<path d="M320.585 210.522C318.696 210.923 316.841 209.717 316.44 207.829C316.398 207.628 316.373 207.423 316.366 207.217L290.133 196.889L295.125 192.799L319.995 203.568C321.935 203.634 323.454 205.259 323.389 207.198C323.335 208.821 322.175 210.195 320.585 210.522V210.522Z" fill="#FFB6B6"/>
<path d="M283.428 173.036C283.428 173.036 278.959 173.001 278.41 178.088C277.862 183.175 287.232 196.077 288.679 198.201C289.133 198.867 291.081 199.623 293.544 200.349C294.65 200.675 295.859 200.995 297.083 201.297C297.791 201.472 298.108 202.646 298.809 202.807C299.506 202.968 300.588 202.115 301.245 202.257C304.36 202.933 306.822 203.384 306.822 203.384L312.646 199.415C309.708 195.077 304.087 193.302 297.72 192.242L283.428 173.036V173.036Z" fill="#2196F3"/>
<path d="M217.671 149.412C217.965 151.32 219.75 152.628 221.657 152.334C221.861 152.303 222.061 152.254 222.256 152.187L241.204 173.063L243.261 166.946L224.383 147.501C223.635 145.71 221.577 144.864 219.787 145.612C218.288 146.238 217.414 147.809 217.671 149.412V149.412V149.412Z" fill="#FFB6B6"/>
<path d="M265.886 170.887C265.886 170.887 267.501 175.054 262.938 177.368C258.375 179.683 242.991 175.489 240.492 174.887C239.709 174.698 238.311 173.144 236.76 171.098C236.064 170.18 235.337 169.162 234.621 168.124C234.206 167.524 232.996 167.643 232.597 167.045C232.2 166.449 232.614 165.135 232.249 164.572C230.513 161.898 229.22 159.755 229.22 159.755L230.87 152.903C235.967 154.115 239.617 158.743 242.864 164.322L265.886 170.887V170.887Z" fill="#2196F3"/>
<path d="M270.806 162.863C275.95 162.863 280.119 158.694 280.119 153.551C280.119 148.408 275.95 144.238 270.806 144.238C265.663 144.238 261.494 148.408 261.494 153.551C261.494 158.694 265.663 162.863 270.806 162.863Z" fill="#FFB6B6"/>
<path d="M281.437 148.219C280.462 146.649 278.674 145.777 276.837 145.977C276.336 142.544 273.147 140.167 269.715 140.668C268.438 140.854 267.25 141.428 266.312 142.313C265.753 141.919 265.028 141.847 264.402 142.122C263.788 142.401 263.255 142.829 262.85 143.368C260.766 145.966 260.28 149.499 261.585 152.563C261.367 151.772 262.161 151.027 262.962 150.849C263.764 150.671 264.605 150.839 265.418 150.724C266.46 150.575 267.396 149.971 268.44 149.835C269.325 149.777 270.213 149.892 271.054 150.171C271.896 150.45 272.782 150.569 273.668 150.522C274.546 150.418 275.678 153.746 275.662 156.091C275.659 156.535 275.751 157.106 276.185 157.2C276.72 157.316 277.03 156.578 277.539 156.377C278.026 156.237 278.537 156.509 278.694 156.991C278.824 157.47 278.715 157.982 278.401 158.366C278.088 158.741 277.716 159.063 277.301 159.32L277.51 159.494C277.921 159.928 278.581 160.01 279.085 159.69C279.565 159.364 279.955 158.921 280.215 158.403C281.198 156.883 281.9 155.201 282.289 153.434C282.672 151.65 282.368 149.787 281.437 148.219V148.219Z" fill="#647380"/>
<path d="M174.935 144.87C175.139 143.387 174.468 142.07 173.437 141.928C172.405 141.786 171.404 142.872 171.199 144.355C170.995 145.838 171.666 147.155 172.697 147.297C173.729 147.439 174.73 146.352 174.935 144.87Z" fill="#2196F3"/>
<path d="M327.321 208.478H314.99C314.659 208.478 312.834 207.513 312.834 206.322V199.472C312.775 194.29 329.737 193.951 329.801 199.472V206.322C329.801 207.513 328.513 208.478 327.321 208.478V208.478Z" fill="#E6E6E6"/>
<path d="M327.959 194.829C327.361 194.615 326.726 194.524 326.092 194.561C326.261 194.505 326.417 194.414 326.549 194.293C326.433 194.288 326.318 194.273 326.205 194.247C326.08 194.223 325.963 194.171 325.862 194.094C325.761 194.014 325.708 193.889 325.719 193.761C325.742 193.604 325.888 193.475 325.873 193.318C325.856 193.137 325.648 193.049 325.536 192.906C325.396 192.684 325.42 192.397 325.595 192.202C325.701 192.078 325.831 191.977 325.977 191.905C325.73 191.842 325.472 191.845 325.228 191.916C325.489 191.713 325.606 191.374 325.523 191.054C325.385 190.655 325.057 190.351 324.649 190.243C324.246 190.142 323.828 190.108 323.414 190.143C323.766 190.035 323.713 189.484 323.444 189.233C323.175 188.981 322.79 188.876 322.537 188.609C322.283 188.343 322.304 187.773 322.669 187.729L322.624 187.599C321.896 187.327 321.086 187.696 320.814 188.424C320.791 188.487 320.772 188.551 320.758 188.616C320.691 189.033 320.815 189.494 320.606 189.861C320.339 190.329 319.691 190.382 319.155 190.33C318.628 190.195 318.07 190.272 317.599 190.543C317.209 190.867 317.157 191.446 317.481 191.836C317.661 192.052 317.93 192.173 318.212 192.166C317.859 192.168 317.508 192.214 317.166 192.304L317.495 192.431C317.568 192.454 317.636 192.492 317.693 192.542C317.751 192.595 317.768 192.679 317.737 192.751C317.685 192.847 317.549 192.843 317.441 192.827L316.726 192.719C316.868 192.767 316.945 192.921 316.898 193.063C316.85 193.205 316.697 193.282 316.554 193.234C316.518 193.222 316.485 193.202 316.456 193.176C316.53 193.262 316.589 193.359 316.631 193.464C316.673 193.57 316.661 193.691 316.598 193.787C316.453 193.92 316.239 193.946 316.066 193.852C316.007 193.829 315.949 193.803 315.89 193.779C315.891 193.8 315.893 193.821 315.895 193.841C315.934 194.116 316.087 194.362 316.317 194.518C315.993 194.556 315.694 194.713 315.48 194.959C315.108 195.421 315.085 196.073 315.425 196.56C315.064 196.4 314.669 196.335 314.276 196.369C313.872 196.419 313.57 196.763 313.572 197.17C313.637 197.669 314.254 197.851 314.753 197.912C318.675 198.395 322.641 198.395 326.563 197.911C327.095 197.875 327.617 197.742 328.102 197.519C328.593 197.287 328.931 196.82 328.998 196.281C328.976 195.631 328.567 195.059 327.959 194.829V194.829Z" fill="#F4B064"/>
<path d="M330.87 200.602C330.781 200.214 330.435 199.94 330.037 199.942C329.658 199.952 329.319 200.222 328.947 200.163C328.638 200.114 328.395 199.844 328.084 199.885C327.799 199.923 327.646 200.201 327.434 200.351H326.889C326.676 200.184 326.572 199.845 326.278 199.75C325.834 199.607 325.478 200.108 325.014 200.196C324.745 200.226 324.473 200.174 324.234 200.047C324.001 199.92 323.747 199.834 323.484 199.793C323.247 199.758 323.012 199.861 322.878 200.059C322.893 199.917 322.709 199.778 322.522 199.77C322.313 199.777 322.11 199.84 321.933 199.951C321.756 200.062 321.55 200.121 321.341 200.12C320.877 200.08 320.649 199.538 320.183 199.532C319.596 199.524 319.361 200.361 318.78 200.29C318.478 200.253 318.315 199.978 318.046 199.861C317.76 199.773 317.455 199.77 317.167 199.853L315.794 200.11C315.391 200.221 314.966 200.225 314.562 200.122C314.267 200.015 313.981 199.784 313.677 199.872C313.413 199.949 313.283 200.245 313.003 200.26C312.824 200.238 312.652 200.179 312.496 200.087C312.199 199.982 311.868 200.065 311.657 200.299C311.503 200.925 311.478 201.576 311.583 202.213C311.579 202.349 311.59 202.484 311.615 202.618L312.997 208.146C313.159 208.994 313.579 209.607 314.442 209.607H327.87C328.733 209.607 329.475 208.994 329.637 208.146L331.019 202.618C331.021 202.603 331.023 202.589 331.025 202.575C331.058 201.913 331.006 201.25 330.87 200.602V200.602Z" fill="#CCCCCC"/>
<path opacity="0.2" d="M314.453 200.185L314.722 203.675C314.811 204.838 314.679 205.985 314.768 207.149C314.818 207.804 315.091 208.475 315.141 209.13C315.147 209.207 315.268 209.208 315.262 209.13L314.994 205.641L314.725 202.151L314.574 200.185C314.568 200.108 314.447 200.108 314.453 200.185Z" fill="black"/>
<path opacity="0.2" d="M316.785 200.323L316.89 203.762L316.994 207.201L317.053 209.132C317.055 209.209 317.176 209.209 317.174 209.132L317.069 205.693L316.965 202.254L316.906 200.323C316.903 200.246 316.782 200.246 316.785 200.323Z" fill="black"/>
<path opacity="0.2" d="M319.044 200.53L319.012 203.853L318.981 207.157L318.963 209.03C318.964 209.063 318.992 209.089 319.025 209.088C319.057 209.087 319.083 209.061 319.084 209.03L319.115 205.706L319.147 202.403L319.165 200.53C319.164 200.497 319.136 200.471 319.103 200.472C319.071 200.473 319.045 200.498 319.044 200.53Z" fill="black"/>
<path opacity="0.2" d="M320.751 200.428L320.817 203.792L320.883 207.137L320.92 209.03C320.921 209.064 320.949 209.09 320.982 209.089C321.014 209.088 321.04 209.062 321.041 209.03L320.975 205.666L320.909 202.322L320.872 200.428C320.87 200.395 320.842 200.368 320.809 200.37C320.777 200.371 320.752 200.396 320.751 200.428Z" fill="black"/>
<path opacity="0.2" d="M323.238 200.29L323.314 203.744L323.389 207.198L323.432 209.132C323.433 209.165 323.461 209.191 323.494 209.19C323.526 209.189 323.551 209.163 323.553 209.132L323.477 205.677L323.401 202.223L323.359 200.29C323.358 200.256 323.33 200.23 323.296 200.231C323.265 200.233 323.239 200.258 323.238 200.29Z" fill="black"/>
<path opacity="0.2" d="M325.303 200.395L325.567 203.875L325.829 207.346L325.978 209.301C325.983 209.378 326.104 209.379 326.099 209.301L325.835 205.821L325.572 202.351L325.424 200.395C325.418 200.318 325.297 200.317 325.303 200.395Z" fill="black"/>
<path opacity="0.2" d="M327.597 200.8L327.756 203.985C327.809 205.046 327.54 206.108 327.593 207.169L327.682 208.957C327.686 209.035 327.807 209.035 327.803 208.957C327.75 207.896 328.019 206.834 327.966 205.773L327.807 202.589L327.718 200.8C327.714 200.723 327.593 200.723 327.597 200.8Z" fill="black"/>
<path d="M320.592 192.076C320.848 192.076 321.055 191.932 321.055 191.754C321.055 191.576 320.848 191.431 320.592 191.431C320.336 191.431 320.128 191.576 320.128 191.754C320.128 191.932 320.336 192.076 320.592 192.076Z" fill="#E6E6E6"/>
<path d="M323.533 192.801C323.789 192.801 323.997 192.657 323.997 192.479C323.997 192.301 323.789 192.156 323.533 192.156C323.277 192.156 323.07 192.301 323.07 192.479C323.07 192.657 323.277 192.801 323.533 192.801Z" fill="#2196F3"/>
<path d="M319.423 194.373C319.679 194.373 319.886 194.229 319.886 194.051C319.886 193.873 319.679 193.729 319.423 193.729C319.167 193.729 318.959 193.873 318.959 194.051C318.959 194.229 319.167 194.373 319.423 194.373Z" fill="#FF6584"/>
<path d="M323.256 194.799C323.418 194.799 323.549 194.707 323.549 194.595C323.549 194.482 323.418 194.391 323.256 194.391C323.094 194.391 322.963 194.482 322.963 194.595C322.963 194.707 323.094 194.799 323.256 194.799Z" fill="#E6E6E6"/>
<path d="M325.115 195.257C325.277 195.257 325.408 195.166 325.408 195.053C325.408 194.94 325.277 194.849 325.115 194.849C324.953 194.849 324.822 194.94 324.822 195.053C324.822 195.166 324.953 195.257 325.115 195.257Z" fill="#2196F3"/>
<path d="M322.517 196.25C322.679 196.25 322.81 196.159 322.81 196.046C322.81 195.934 322.679 195.842 322.517 195.842C322.355 195.842 322.224 195.934 322.224 196.046C322.224 196.159 322.355 196.25 322.517 196.25Z" fill="#FF6584"/>
<path d="M325.996 195.927C326.158 195.927 326.289 195.836 326.289 195.723C326.289 195.61 326.158 195.519 325.996 195.519C325.834 195.519 325.703 195.61 325.703 195.723C325.703 195.836 325.834 195.927 325.996 195.927Z" fill="#E6E6E6"/>
<path d="M327.855 196.385C328.017 196.385 328.149 196.294 328.149 196.181C328.149 196.069 328.017 195.978 327.855 195.978C327.693 195.978 327.562 196.069 327.562 196.181C327.562 196.294 327.693 196.385 327.855 196.385Z" fill="#2196F3"/>
<path d="M325.257 197.379C325.419 197.379 325.551 197.287 325.551 197.175C325.551 197.062 325.419 196.971 325.257 196.971C325.096 196.971 324.964 197.062 324.964 197.175C324.964 197.287 325.096 197.379 325.257 197.379Z" fill="#FF6584"/>
<path d="M318.446 194.852C318.468 194.691 318.396 194.549 318.284 194.533C318.172 194.518 318.064 194.636 318.042 194.796C318.02 194.956 318.092 195.099 318.204 195.114C318.316 195.13 318.424 195.012 318.446 194.852Z" fill="#E6E6E6"/>
<path d="M317.736 196.63C317.758 196.47 317.685 196.328 317.574 196.312C317.462 196.297 317.354 196.414 317.332 196.575C317.31 196.735 317.382 196.878 317.494 196.893C317.605 196.908 317.714 196.791 317.736 196.63Z" fill="#2196F3"/>
<path d="M317.109 193.921C317.131 193.761 317.058 193.619 316.947 193.603C316.835 193.588 316.727 193.705 316.704 193.866C316.682 194.026 316.755 194.169 316.866 194.184C316.978 194.199 317.086 194.082 317.109 193.921Z" fill="#FF6584"/>
<path d="M321.63 193.884C321.652 193.724 321.579 193.581 321.468 193.566C321.356 193.551 321.248 193.668 321.226 193.829C321.204 193.989 321.276 194.132 321.388 194.147C321.499 194.162 321.608 194.045 321.63 193.884Z" fill="#E6E6E6"/>
<path d="M320.922 195.664C320.944 195.503 320.871 195.361 320.76 195.345C320.648 195.33 320.54 195.448 320.518 195.608C320.496 195.768 320.568 195.911 320.68 195.926C320.791 195.942 320.9 195.824 320.922 195.664Z" fill="#2196F3"/>
<path d="M320.292 192.954C320.315 192.794 320.242 192.651 320.13 192.636C320.019 192.621 319.91 192.738 319.888 192.899C319.866 193.059 319.939 193.201 320.05 193.217C320.162 193.232 320.27 193.115 320.292 192.954Z" fill="#FF6584"/>
<path d="M322.493 191.916C322.516 191.755 322.443 191.613 322.331 191.597C322.22 191.582 322.112 191.7 322.089 191.86C322.067 192.02 322.14 192.163 322.251 192.178C322.363 192.194 322.471 192.076 322.493 191.916Z" fill="#2196F3"/>
<path d="M321.864 189.206C321.886 189.046 321.814 188.903 321.702 188.888C321.591 188.872 321.482 188.99 321.46 189.15C321.438 189.311 321.511 189.453 321.622 189.469C321.734 189.484 321.842 189.367 321.864 189.206Z" fill="#FF6584"/>
<path d="M121.753 242.155C113.553 242.155 106.907 235.508 106.907 227.309C106.907 219.11 113.553 212.463 121.753 212.463C129.952 212.463 136.599 219.11 136.599 227.309C136.599 235.508 129.952 242.155 121.753 242.155Z" fill="#E6E6E6"/>
<path d="M127.61 225.845H123.217V221.451C123.217 220.642 122.561 219.987 121.753 219.987C120.944 219.987 120.288 220.642 120.288 221.451V225.845H115.895C115.086 225.845 114.43 226.5 114.43 227.309C114.43 228.118 115.086 228.774 115.895 228.774H120.288V233.167C120.29 233.976 120.947 234.63 121.756 234.628C122.562 234.626 123.215 233.973 123.217 233.167V228.774H127.61C128.419 228.774 129.075 228.118 129.075 227.309C129.075 226.5 128.419 225.845 127.61 225.845V225.845Z" fill="white"/>
<path d="M165.187 242.155C156.988 242.155 150.341 235.508 150.341 227.309C150.341 219.11 156.988 212.463 165.187 212.463C173.387 212.463 180.033 219.11 180.033 227.309C180.033 235.508 173.387 242.155 165.187 242.155Z" fill="#E6E6E6"/>
<path d="M171.045 225.845H159.33C158.521 225.845 157.865 226.5 157.865 227.309C157.865 228.118 158.521 228.774 159.33 228.774H171.045C171.854 228.774 172.51 228.118 172.51 227.309C172.51 226.5 171.854 225.845 171.045 225.845Z" fill="white"/>
<path d="M208.622 242.155C200.423 242.155 193.776 235.508 193.776 227.309C193.776 219.11 200.423 212.463 208.622 212.463C216.822 212.463 223.468 219.11 223.468 227.309V227.309C223.468 235.508 216.822 242.155 208.622 242.155Z" fill="#F4B064"/>
<path d="M216.974 226.604L212.766 220.461C212.376 219.892 211.599 219.747 211.03 220.137C210.462 220.526 210.317 221.303 210.706 221.872L213.428 225.845H202.765C201.956 225.845 201.3 226.5 201.3 227.309C201.3 228.118 201.956 228.774 202.765 228.774H213.562L210.706 232.942C210.318 233.512 210.465 234.288 211.034 234.677C211.602 235.064 212.376 234.919 212.766 234.353L216.975 228.21C217.253 227.711 217.253 227.103 216.975 226.604H216.974Z" fill="white"/>
<path d="M100.788 66.5454H81.2551C79.788 66.5454 78.5986 67.7348 78.5986 69.2019V69.2019C78.5986 70.6691 79.788 71.8584 81.2551 71.8584H100.788C102.255 71.8584 103.445 70.6691 103.445 69.2019C103.445 67.7348 102.255 66.5454 100.788 66.5454Z" fill="#F4B064"/>
<path d="M113.406 77.1714H68.6367C67.1695 77.1714 65.9802 78.3607 65.9802 79.8279V79.8279C65.9802 81.295 67.1695 82.4844 68.6367 82.4844H113.406C114.874 82.4844 116.063 81.295 116.063 79.8279C116.063 78.3607 114.874 77.1714 113.406 77.1714Z" fill="#E6E6E6"/>
<path d="M113.406 87.7974H68.6367C67.1695 87.7974 65.9802 88.9867 65.9802 90.4539V90.4539C65.9802 91.921 67.1695 93.1104 68.6367 93.1104H113.406C114.874 93.1104 116.063 91.921 116.063 90.4539C116.063 88.9867 114.874 87.7974 113.406 87.7974Z" fill="#E6E6E6"/>
<path d="M110.646 144.839H109.511V102.257H28.5636V101.123H110.646V144.839Z" fill="#E6E6E6"/>
<path d="M15.9158 114.153C24.6215 114.153 31.6788 107.095 31.6788 98.3895C31.6788 89.6838 24.6215 82.6265 15.9158 82.6265C7.21007 82.6265 0.15271 89.6838 0.15271 98.3895C0.15271 107.095 7.21007 114.153 15.9158 114.153Z" fill="#E6E6E6"/>
<path d="M13.7653 106.593C13.2134 106.593 12.6938 106.333 12.3628 105.892L8.06236 100.158C7.48136 99.3832 7.6384 98.2842 8.41312 97.7032C9.18783 97.1222 10.2868 97.2792 10.8678 98.054L13.6813 101.805L20.9073 90.9661C21.4445 90.1603 22.5332 89.9426 23.339 90.4797C24.1447 91.0169 24.3624 92.1056 23.8253 92.9113L15.2245 105.813C14.9087 106.286 14.383 106.577 13.8142 106.593C13.7979 106.593 13.7816 106.593 13.7653 106.593V106.593Z" fill="white"/>
<path d="M217.568 142.594H216.433V98.8779H298.515V100.013H217.568V142.594Z" fill="#E6E6E6"/>
<path d="M311.102 111.908C319.807 111.908 326.865 104.851 326.865 96.1449C326.865 87.4392 319.807 80.3818 311.102 80.3818C302.396 80.3818 295.339 87.4392 295.339 96.1449C295.339 104.851 302.396 111.908 311.102 111.908Z" fill="#E6E6E6"/>
<path d="M308.951 104.349C308.399 104.349 307.88 104.089 307.549 103.647L303.248 97.9133C302.665 97.14 302.82 96.0406 303.593 95.4577C304.366 94.8748 305.466 95.0291 306.049 95.8023L306.054 95.8093L308.867 99.5603L316.093 88.7214C316.631 87.9157 317.719 87.6979 318.525 88.2351C319.331 88.7723 319.548 89.861 319.011 90.6667L310.41 103.568C310.095 104.041 309.569 104.332 309 104.348C308.984 104.348 308.968 104.349 308.951 104.349V104.349Z" fill="white"/>
<path d="M115.156 149.87H102.825C102.494 149.87 100.668 148.904 100.668 147.713V140.863C100.609 135.682 117.571 135.343 117.635 140.863V147.713C117.635 148.904 116.347 149.87 115.156 149.87Z" fill="#E6E6E6"/>
<path d="M115.794 136.22C115.196 136.006 114.561 135.915 113.927 135.952C114.096 135.896 114.252 135.805 114.384 135.684C114.268 135.68 114.153 135.664 114.04 135.638C113.915 135.615 113.798 135.562 113.698 135.485C113.597 135.405 113.543 135.28 113.554 135.152C113.577 134.995 113.723 134.866 113.708 134.709C113.691 134.528 113.483 134.44 113.371 134.297C113.231 134.075 113.255 133.788 113.43 133.593C113.536 133.469 113.666 133.368 113.812 133.296C113.565 133.233 113.307 133.237 113.063 133.307C113.324 133.104 113.441 132.766 113.358 132.445C113.22 132.046 112.892 131.742 112.484 131.634C112.081 131.533 111.664 131.499 111.249 131.535C111.601 131.426 111.548 130.875 111.279 130.624C111.01 130.372 110.626 130.267 110.372 130.001C110.118 129.734 110.139 129.164 110.504 129.12L110.459 128.99C109.731 128.718 108.921 129.088 108.649 129.816C108.626 129.878 108.607 129.942 108.593 130.007C108.526 130.424 108.65 130.885 108.441 131.253C108.174 131.721 107.526 131.773 106.99 131.722C106.464 131.587 105.905 131.663 105.434 131.934C105.045 132.258 104.992 132.837 105.316 133.227C105.496 133.443 105.766 133.564 106.047 133.557C105.694 133.559 105.343 133.605 105.001 133.695L105.33 133.822C105.403 133.845 105.471 133.883 105.528 133.933C105.586 133.986 105.604 134.07 105.572 134.142C105.52 134.238 105.384 134.234 105.276 134.218L104.561 134.111C104.704 134.158 104.78 134.312 104.733 134.454C104.686 134.596 104.532 134.673 104.39 134.625C104.353 134.613 104.32 134.594 104.291 134.567C104.365 134.653 104.424 134.75 104.466 134.855C104.508 134.962 104.496 135.082 104.433 135.178C104.288 135.311 104.074 135.337 103.901 135.243C103.843 135.22 103.784 135.194 103.725 135.17C103.726 135.191 103.728 135.212 103.73 135.233C103.77 135.507 103.923 135.753 104.152 135.909C103.828 135.947 103.529 136.104 103.315 136.35C102.943 136.812 102.92 137.464 103.26 137.951C102.899 137.791 102.504 137.726 102.111 137.761C101.707 137.81 101.405 138.154 101.407 138.561C101.472 139.06 102.089 139.242 102.588 139.304C106.51 139.786 110.476 139.786 114.398 139.302C114.931 139.266 115.452 139.133 115.938 138.91C116.428 138.678 116.766 138.211 116.833 137.672C116.812 137.023 116.402 136.45 115.794 136.22V136.22Z" fill="#F4B064"/>
<path d="M118.705 141.993C118.616 141.605 118.27 141.331 117.872 141.333C117.493 141.343 117.154 141.614 116.782 141.555C116.473 141.505 116.23 141.236 115.919 141.277C115.634 141.314 115.481 141.593 115.269 141.742H114.723C114.511 141.575 114.407 141.237 114.112 141.142C113.669 140.999 113.313 141.499 112.849 141.588C112.58 141.618 112.308 141.566 112.069 141.439C111.835 141.312 111.581 141.226 111.318 141.185C111.082 141.149 110.847 141.253 110.713 141.451C110.728 141.309 110.544 141.17 110.357 141.161C110.148 141.169 109.945 141.231 109.768 141.342C109.591 141.454 109.385 141.512 109.176 141.512C108.712 141.471 108.484 140.929 108.018 140.923C107.43 140.916 107.195 141.753 106.615 141.681C106.313 141.644 106.15 141.37 105.88 141.253C105.595 141.165 105.29 141.162 105.002 141.244L103.629 141.501C103.226 141.612 102.801 141.617 102.397 141.513C102.102 141.407 101.816 141.176 101.512 141.264C101.247 141.34 101.118 141.637 100.838 141.652C100.659 141.629 100.487 141.57 100.331 141.479C100.034 141.373 99.7031 141.457 99.4915 141.69C99.3378 142.317 99.3129 142.968 99.4183 143.604C99.4142 143.74 99.4249 143.876 99.4504 144.009L100.832 149.538C100.994 150.386 101.414 150.999 102.277 150.999H115.704C116.568 150.999 117.309 150.386 117.472 149.538L118.853 144.009C118.856 143.995 118.858 143.981 118.86 143.966C118.893 143.305 118.841 142.642 118.705 141.993V141.993Z" fill="#CCCCCC"/>
<path opacity="0.2" d="M102.288 141.577L102.556 145.067C102.646 146.23 102.513 147.377 102.603 148.54C102.653 149.195 102.926 149.867 102.976 150.522C102.982 150.599 103.103 150.6 103.097 150.522L102.829 147.032L102.56 143.543L102.409 141.577C102.403 141.5 102.282 141.499 102.288 141.577V141.577Z" fill="black"/>
<path opacity="0.2" d="M104.62 141.715L104.724 145.154L104.829 148.593L104.888 150.523C104.89 150.601 105.011 150.601 105.009 150.523L104.904 147.084L104.799 143.646L104.741 141.715C104.738 141.637 104.617 141.637 104.62 141.715Z" fill="black"/>
<path opacity="0.2" d="M106.879 141.921L106.847 145.245L106.815 148.548L106.798 150.421C106.799 150.454 106.827 150.48 106.86 150.479C106.892 150.478 106.917 150.453 106.918 150.421L106.95 147.098L106.982 143.794L107 141.921C106.999 141.888 106.971 141.862 106.937 141.863C106.906 141.864 106.88 141.889 106.879 141.921Z" fill="black"/>
<path opacity="0.2" d="M108.586 141.82L108.652 145.184L108.718 148.528L108.755 150.422C108.756 150.455 108.784 150.481 108.817 150.48C108.849 150.479 108.875 150.454 108.876 150.422L108.81 147.058L108.744 143.713L108.707 141.82C108.705 141.786 108.677 141.76 108.644 141.761C108.612 141.762 108.587 141.788 108.586 141.82Z" fill="black"/>
<path opacity="0.2" d="M111.073 141.681L111.149 145.136L111.224 148.59L111.267 150.523C111.268 150.557 111.296 150.583 111.329 150.582C111.361 150.58 111.386 150.555 111.387 150.523L111.312 147.069L111.236 143.615L111.194 141.681C111.193 141.648 111.165 141.622 111.131 141.623C111.099 141.624 111.074 141.65 111.073 141.681Z" fill="black"/>
<path opacity="0.2" d="M113.138 141.786L113.401 145.266L113.664 148.737L113.812 150.692C113.818 150.77 113.939 150.77 113.933 150.692L113.67 147.212L113.407 143.742L113.258 141.786C113.253 141.709 113.132 141.708 113.138 141.786Z" fill="black"/>
<path opacity="0.2" d="M115.432 142.192L115.591 145.376C115.644 146.438 115.374 147.499 115.427 148.561L115.517 150.349C115.521 150.426 115.642 150.427 115.638 150.349C115.585 149.288 115.854 148.226 115.801 147.165L115.642 143.98L115.553 142.192C115.549 142.115 115.428 142.114 115.432 142.192V142.192Z" fill="black"/>
<path d="M108.427 133.468C108.683 133.468 108.89 133.323 108.89 133.145C108.89 132.967 108.683 132.823 108.427 132.823C108.171 132.823 107.963 132.967 107.963 133.145C107.963 133.323 108.171 133.468 108.427 133.468Z" fill="#E6E6E6"/>
<path d="M111.368 134.193C111.624 134.193 111.832 134.048 111.832 133.87C111.832 133.692 111.624 133.548 111.368 133.548C111.113 133.548 110.905 133.692 110.905 133.87C110.905 134.048 111.113 134.193 111.368 134.193Z" fill="#2196F3"/>
<path d="M107.258 135.764C107.514 135.764 107.721 135.62 107.721 135.442C107.721 135.264 107.514 135.12 107.258 135.12C107.002 135.12 106.794 135.264 106.794 135.442C106.794 135.62 107.002 135.764 107.258 135.764Z" fill="#FF6584"/>
<path d="M111.09 136.19C111.252 136.19 111.384 136.098 111.384 135.986C111.384 135.873 111.252 135.782 111.09 135.782C110.929 135.782 110.797 135.873 110.797 135.986C110.797 136.098 110.929 136.19 111.09 136.19Z" fill="#E6E6E6"/>
<path d="M112.95 136.648C113.112 136.648 113.243 136.557 113.243 136.444C113.243 136.332 113.112 136.24 112.95 136.24C112.788 136.24 112.657 136.332 112.657 136.444C112.657 136.557 112.788 136.648 112.95 136.648Z" fill="#2196F3"/>
<path d="M110.352 137.642C110.514 137.642 110.645 137.55 110.645 137.438C110.645 137.325 110.514 137.234 110.352 137.234C110.19 137.234 110.059 137.325 110.059 137.438C110.059 137.55 110.19 137.642 110.352 137.642Z" fill="#FF6584"/>
<path d="M113.831 137.319C113.993 137.319 114.124 137.227 114.124 137.115C114.124 137.002 113.993 136.911 113.831 136.911C113.669 136.911 113.538 137.002 113.538 137.115C113.538 137.227 113.669 137.319 113.831 137.319Z" fill="#E6E6E6"/>
<path d="M115.69 137.777C115.852 137.777 115.984 137.685 115.984 137.573C115.984 137.46 115.852 137.369 115.69 137.369C115.528 137.369 115.397 137.46 115.397 137.573C115.397 137.685 115.528 137.777 115.69 137.777Z" fill="#2196F3"/>
<path d="M113.092 138.77C113.254 138.77 113.386 138.679 113.386 138.566C113.386 138.454 113.254 138.362 113.092 138.362C112.93 138.362 112.799 138.454 112.799 138.566C112.799 138.679 112.93 138.77 113.092 138.77Z" fill="#FF6584"/>
<path d="M106.281 136.243C106.303 136.082 106.23 135.94 106.119 135.924C106.007 135.909 105.899 136.027 105.877 136.187C105.855 136.348 105.927 136.49 106.039 136.505C106.15 136.521 106.259 136.403 106.281 136.243Z" fill="#E6E6E6"/>
<path d="M105.573 138.022C105.595 137.862 105.522 137.719 105.411 137.704C105.299 137.688 105.191 137.806 105.169 137.966C105.147 138.127 105.219 138.269 105.331 138.285C105.442 138.3 105.551 138.182 105.573 138.022Z" fill="#2196F3"/>
<path d="M104.943 135.313C104.966 135.153 104.893 135.01 104.781 134.995C104.67 134.979 104.561 135.097 104.539 135.257C104.517 135.418 104.59 135.56 104.701 135.576C104.813 135.591 104.921 135.473 104.943 135.313Z" fill="#FF6584"/>
<path d="M109.465 135.275C109.487 135.115 109.414 134.973 109.303 134.957C109.191 134.942 109.083 135.059 109.061 135.22C109.038 135.38 109.111 135.523 109.223 135.538C109.334 135.553 109.443 135.436 109.465 135.275Z" fill="#E6E6E6"/>
<path d="M108.757 137.055C108.779 136.894 108.706 136.752 108.595 136.737C108.483 136.721 108.375 136.839 108.353 136.999C108.331 137.16 108.403 137.302 108.515 137.317C108.626 137.333 108.735 137.215 108.757 137.055Z" fill="#2196F3"/>
<path d="M108.127 134.346C108.149 134.185 108.077 134.043 107.965 134.028C107.854 134.012 107.745 134.13 107.723 134.29C107.701 134.451 107.774 134.593 107.885 134.608C107.997 134.624 108.105 134.506 108.127 134.346Z" fill="#FF6584"/>
<path d="M110.327 133.306C110.349 133.146 110.277 133.003 110.165 132.988C110.053 132.973 109.945 133.09 109.923 133.251C109.901 133.411 109.973 133.553 110.085 133.569C110.197 133.584 110.305 133.467 110.327 133.306Z" fill="#2196F3"/>
<path d="M109.699 130.598C109.721 130.437 109.648 130.295 109.537 130.279C109.425 130.264 109.317 130.382 109.295 130.542C109.273 130.702 109.345 130.845 109.457 130.86C109.568 130.876 109.677 130.758 109.699 130.598Z" fill="#FF6584"/>
<path d="M223.769 147.477H211.438C211.107 147.477 209.281 146.512 209.281 145.321V138.471C209.222 133.289 226.184 132.95 226.248 138.471V145.321C226.248 146.512 224.96 147.477 223.769 147.477V147.477Z" fill="#E6E6E6"/>
<path d="M224.407 133.827C223.809 133.613 223.174 133.522 222.54 133.56C222.709 133.504 222.865 133.412 222.997 133.292C222.881 133.287 222.766 133.272 222.653 133.245C222.528 133.222 222.411 133.169 222.311 133.092C222.21 133.013 222.156 132.887 222.167 132.759C222.19 132.603 222.336 132.474 222.321 132.316C222.304 132.135 222.096 132.048 221.984 131.904C221.844 131.683 221.869 131.395 222.043 131.2C222.149 131.077 222.279 130.976 222.425 130.904C222.178 130.84 221.92 130.844 221.676 130.914C221.937 130.712 222.054 130.373 221.971 130.052C221.833 129.653 221.505 129.349 221.097 129.242C220.694 129.14 220.276 129.106 219.862 129.142C220.214 129.034 220.161 128.482 219.892 128.231C219.623 127.98 219.239 127.875 218.985 127.608C218.731 127.341 218.752 126.771 219.117 126.727L219.072 126.597C218.344 126.325 217.534 126.695 217.262 127.423C217.239 127.485 217.22 127.549 217.206 127.614C217.139 128.031 217.263 128.493 217.054 128.86C216.787 129.328 216.139 129.381 215.603 129.329C215.076 129.194 214.518 129.27 214.047 129.541C213.657 129.866 213.605 130.445 213.929 130.834C214.109 131.05 214.379 131.172 214.66 131.164C214.307 131.167 213.956 131.213 213.614 131.302L213.943 131.43C214.016 131.452 214.084 131.49 214.141 131.541C214.199 131.594 214.217 131.678 214.185 131.75C214.133 131.845 213.997 131.842 213.889 131.826L213.174 131.718C213.317 131.765 213.393 131.919 213.346 132.061C213.298 132.204 213.145 132.28 213.003 132.233C212.966 132.221 212.933 132.201 212.904 132.175C212.978 132.261 213.037 132.358 213.079 132.462C213.121 132.569 213.109 132.689 213.046 132.785C212.901 132.919 212.687 132.945 212.514 132.85C212.455 132.828 212.397 132.802 212.338 132.778C212.339 132.799 212.341 132.819 212.343 132.84C212.383 133.115 212.536 133.36 212.765 133.516C212.441 133.554 212.142 133.711 211.928 133.957C211.556 134.419 211.533 135.072 211.873 135.558C211.512 135.399 211.117 135.333 210.724 135.368C210.32 135.418 210.018 135.762 210.02 136.169C210.085 136.667 210.702 136.849 211.201 136.911C215.123 137.394 219.089 137.393 223.011 136.91C223.544 136.874 224.065 136.741 224.551 136.518C225.041 136.286 225.379 135.818 225.446 135.279C225.425 134.63 225.015 134.057 224.407 133.827V133.827Z" fill="#F4B064"/>
<path d="M227.318 139.6C227.229 139.212 226.883 138.938 226.485 138.94C226.106 138.95 225.767 139.221 225.395 139.161C225.086 139.112 224.843 138.842 224.532 138.884C224.247 138.921 224.094 139.2 223.882 139.349H223.337C223.124 139.182 223.02 138.844 222.726 138.749C222.282 138.606 221.926 139.106 221.462 139.195C221.193 139.225 220.921 139.173 220.682 139.046C220.448 138.919 220.195 138.833 219.932 138.792C219.695 138.756 219.46 138.86 219.326 139.057C219.341 138.916 219.157 138.777 218.97 138.768C218.761 138.776 218.558 138.838 218.381 138.949C218.204 139.061 217.998 139.119 217.789 139.119C217.325 139.078 217.097 138.536 216.631 138.53C216.044 138.523 215.809 139.359 215.228 139.288C214.926 139.251 214.763 138.977 214.494 138.86C214.208 138.772 213.903 138.769 213.615 138.851L212.242 139.108C211.839 139.219 211.414 139.223 211.01 139.12C210.715 139.014 210.429 138.783 210.125 138.871C209.86 138.947 209.731 139.244 209.451 139.259C209.272 139.236 209.1 139.177 208.944 139.086C208.647 138.98 208.316 139.064 208.105 139.297C207.951 139.924 207.926 140.575 208.031 141.211C208.027 141.347 208.038 141.483 208.063 141.616L209.445 147.145C209.607 147.993 210.027 148.606 210.89 148.606H224.317C225.181 148.606 225.922 147.993 226.085 147.145L227.466 141.616C227.469 141.602 227.471 141.588 227.473 141.573C227.506 140.912 227.454 140.248 227.318 139.6V139.6Z" fill="#CCCCCC"/>
<path opacity="0.2" d="M210.901 139.184L211.17 142.674C211.259 143.837 211.127 144.984 211.216 146.147C211.266 146.802 211.539 147.474 211.589 148.129C211.595 148.206 211.716 148.207 211.71 148.129L211.442 144.639L211.173 141.149L211.022 139.184C211.016 139.107 210.895 139.106 210.901 139.184V139.184Z" fill="black"/>
<path opacity="0.2" d="M213.233 139.323L213.338 142.761L213.442 146.2L213.501 148.131C213.503 148.208 213.624 148.209 213.622 148.131L213.517 144.692L213.413 141.253L213.354 139.323C213.351 139.245 213.231 139.245 213.233 139.323Z" fill="black"/>
<path opacity="0.2" d="M215.492 139.529L215.46 142.852L215.428 146.155L215.411 148.028C215.412 148.062 215.44 148.088 215.473 148.087C215.505 148.086 215.53 148.06 215.531 148.028L215.563 144.705L215.595 141.402L215.613 139.529C215.612 139.495 215.584 139.469 215.55 139.47C215.519 139.471 215.493 139.497 215.492 139.529Z" fill="black"/>
<path opacity="0.2" d="M217.199 139.427L217.265 142.791L217.331 146.136L217.368 148.029C217.369 148.063 217.397 148.089 217.43 148.088C217.462 148.087 217.488 148.061 217.489 148.029L217.423 144.665L217.357 141.321L217.32 139.427C217.318 139.394 217.29 139.368 217.257 139.369C217.225 139.37 217.2 139.395 217.199 139.427Z" fill="black"/>
<path opacity="0.2" d="M219.686 139.289L219.762 142.743L219.837 146.197L219.88 148.13C219.881 148.164 219.909 148.19 219.942 148.189C219.974 148.188 219.999 148.162 220.001 148.13L219.925 144.676L219.849 141.222L219.807 139.289C219.806 139.255 219.778 139.229 219.744 139.231C219.713 139.232 219.687 139.257 219.686 139.289Z" fill="black"/>
<path opacity="0.2" d="M221.751 139.394L222.014 142.874L222.277 146.344L222.425 148.3C222.431 148.377 222.552 148.378 222.546 148.3L222.283 144.82L222.02 141.349L221.871 139.394C221.866 139.316 221.745 139.316 221.751 139.394Z" fill="black"/>
<path opacity="0.2" d="M224.045 139.799L224.204 142.983C224.257 144.045 223.988 145.106 224.041 146.168L224.13 147.956C224.134 148.033 224.255 148.034 224.251 147.956C224.198 146.894 224.467 145.833 224.414 144.771L224.255 141.587L224.166 139.799C224.162 139.722 224.041 139.721 224.045 139.799Z" fill="black"/>
<path d="M217.04 131.075C217.296 131.075 217.503 130.93 217.503 130.752C217.503 130.574 217.296 130.43 217.04 130.43C216.784 130.43 216.576 130.574 216.576 130.752C216.576 130.93 216.784 131.075 217.04 131.075Z" fill="#E6E6E6"/>
<path d="M219.982 131.8C220.238 131.8 220.445 131.656 220.445 131.478C220.445 131.3 220.238 131.155 219.982 131.155C219.726 131.155 219.518 131.3 219.518 131.478C219.518 131.656 219.726 131.8 219.982 131.8Z" fill="#2196F3"/>
<path d="M215.871 133.372C216.127 133.372 216.334 133.228 216.334 133.049C216.334 132.871 216.127 132.727 215.871 132.727C215.615 132.727 215.407 132.871 215.407 133.049C215.407 133.228 215.615 133.372 215.871 133.372Z" fill="#FF6584"/>
<path d="M219.704 133.797C219.866 133.797 219.997 133.706 219.997 133.593C219.997 133.48 219.866 133.389 219.704 133.389C219.542 133.389 219.411 133.48 219.411 133.593C219.411 133.706 219.542 133.797 219.704 133.797Z" fill="#E6E6E6"/>
<path d="M221.563 134.256C221.725 134.256 221.856 134.164 221.856 134.052C221.856 133.939 221.725 133.848 221.563 133.848C221.401 133.848 221.27 133.939 221.27 134.052C221.27 134.164 221.401 134.256 221.563 134.256Z" fill="#2196F3"/>
<path d="M218.965 135.249C219.127 135.249 219.258 135.157 219.258 135.045C219.258 134.932 219.127 134.841 218.965 134.841C218.803 134.841 218.672 134.932 218.672 135.045C218.672 135.157 218.803 135.249 218.965 135.249Z" fill="#FF6584"/>
<path d="M222.444 134.925C222.606 134.925 222.737 134.834 222.737 134.722C222.737 134.609 222.606 134.518 222.444 134.518C222.282 134.518 222.151 134.609 222.151 134.722C222.151 134.834 222.282 134.925 222.444 134.925Z" fill="#E6E6E6"/>
<path d="M224.303 135.384C224.465 135.384 224.597 135.293 224.597 135.18C224.597 135.067 224.465 134.976 224.303 134.976C224.142 134.976 224.01 135.067 224.01 135.18C224.01 135.293 224.142 135.384 224.303 135.384Z" fill="#2196F3"/>
<path d="M221.706 136.377C221.867 136.377 221.999 136.286 221.999 136.173C221.999 136.061 221.867 135.969 221.706 135.969C221.544 135.969 221.412 136.061 221.412 136.173C221.412 136.286 221.544 136.377 221.706 136.377Z" fill="#FF6584"/>
<path d="M214.894 133.85C214.916 133.69 214.844 133.547 214.732 133.532C214.62 133.517 214.512 133.634 214.49 133.795C214.468 133.955 214.54 134.097 214.652 134.113C214.763 134.128 214.872 134.011 214.894 133.85Z" fill="#E6E6E6"/>
<path d="M214.186 135.629C214.208 135.469 214.135 135.327 214.024 135.311C213.912 135.296 213.804 135.413 213.782 135.574C213.76 135.734 213.832 135.877 213.944 135.892C214.055 135.907 214.164 135.79 214.186 135.629Z" fill="#2196F3"/>
<path d="M213.557 132.92C213.579 132.76 213.506 132.618 213.395 132.602C213.283 132.587 213.175 132.704 213.152 132.865C213.13 133.025 213.203 133.168 213.314 133.183C213.426 133.198 213.534 133.081 213.557 132.92Z" fill="#FF6584"/>
<path d="M218.078 132.883C218.1 132.722 218.027 132.58 217.916 132.565C217.804 132.549 217.696 132.667 217.674 132.827C217.651 132.988 217.724 133.13 217.836 133.146C217.947 133.161 218.055 133.043 218.078 132.883Z" fill="#E6E6E6"/>
<path d="M217.37 134.662C217.392 134.502 217.319 134.359 217.208 134.344C217.096 134.329 216.988 134.446 216.966 134.607C216.944 134.767 217.016 134.909 217.128 134.925C217.239 134.94 217.348 134.823 217.37 134.662Z" fill="#2196F3"/>
<path d="M216.74 131.953C216.762 131.793 216.69 131.65 216.578 131.635C216.467 131.62 216.358 131.737 216.336 131.898C216.314 132.058 216.387 132.2 216.498 132.216C216.61 132.231 216.718 132.114 216.74 131.953Z" fill="#FF6584"/>
<path d="M218.94 130.914C218.962 130.753 218.889 130.611 218.778 130.595C218.666 130.58 218.558 130.698 218.536 130.858C218.514 131.018 218.586 131.161 218.698 131.176C218.809 131.192 218.918 131.074 218.94 130.914Z" fill="#2196F3"/>
<path d="M218.312 128.205C218.334 128.045 218.262 127.902 218.15 127.887C218.039 127.871 217.93 127.989 217.908 128.149C217.886 128.31 217.959 128.452 218.07 128.468C218.182 128.483 218.29 128.366 218.312 128.205Z" fill="#FF6584"/>
<path d="M198.076 8.4675V94.5137L197.777 98.0965C197.253 104.316 194.618 110.169 190.31 114.685C189.699 115.324 189.06 115.929 188.393 116.5C187.572 117.208 186.708 117.866 185.807 118.469C185.291 118.816 184.763 119.143 184.225 119.453C181.101 121.257 177.651 122.424 174.073 122.886H148.434C146.394 122.888 144.422 122.15 142.884 120.809C142.123 120.146 141.485 119.354 141 118.469C140.322 117.228 139.967 115.835 139.969 114.421V8.4675C139.972 6.22266 140.865 4.07057 142.452 2.48323C144.039 0.895879 146.191 0.0028533 148.436 0H189.61C189.708 0 189.803 0.00216708 189.901 0.00433324C189.964 0.00649939 190.026 0.00866621 190.089 0.0151647C190.174 0.0173308 190.258 0.0238297 190.34 0.0324943C190.447 0.0389928 190.551 0.0498102 190.655 0.0628071C190.75 0.0758041 190.845 0.0888015 190.941 0.103965C190.96 0.106131 190.977 0.110465 190.997 0.112631C191.118 0.132126 191.239 0.153788 191.359 0.179781C191.478 0.203609 191.599 0.231767 191.716 0.262093C191.8 0.283755 191.887 0.307584 191.972 0.331412C191.974 0.331412 191.978 0.333577 191.98 0.333577C192.229 0.407226 192.476 0.491708 192.719 0.589185C192.795 0.617345 192.871 0.649835 192.944 0.682328L192.977 0.695324C193.037 0.721318 193.096 0.747314 193.154 0.775474C193.33 0.855622 193.503 0.944432 193.674 1.03758C193.956 1.19277 194.228 1.36344 194.491 1.5488C194.575 1.60729 194.658 1.67011 194.738 1.73292C194.805 1.78275 194.872 1.83473 194.937 1.89105C194.943 1.89393 194.948 1.89757 194.952 1.90188C194.961 1.90838 194.97 1.91705 194.978 1.92355C195.037 1.96904 195.093 2.01669 195.147 2.06435C195.253 2.15532 195.357 2.25063 195.459 2.34811C195.487 2.37411 195.515 2.4001 195.544 2.42826C195.572 2.45426 195.598 2.48241 195.626 2.51057C195.654 2.53657 195.68 2.56473 195.706 2.59072C195.722 2.60406 195.736 2.61854 195.749 2.63405C195.827 2.71636 195.903 2.80084 195.977 2.88532C196.07 2.99146 196.161 3.09977 196.245 3.21024C196.319 3.30122 196.388 3.3922 196.456 3.48534C196.518 3.56981 196.577 3.6543 196.635 3.74095C196.651 3.7625 196.665 3.78492 196.679 3.8081C196.739 3.89691 196.796 3.98789 196.852 4.07887C196.993 4.30848 197.121 4.54676 197.238 4.7872C197.281 4.87818 197.322 4.967 197.361 5.05797C197.411 5.16845 197.456 5.27892 197.5 5.3894C197.517 5.43055 197.532 5.47388 197.547 5.51503C197.571 5.57785 197.593 5.64067 197.614 5.70349C197.638 5.7728 197.662 5.84429 197.684 5.9136L197.736 6.08256C197.766 6.18437 197.792 6.28402 197.818 6.38582C197.833 6.44648 197.848 6.50713 197.861 6.56995C197.963 7.01233 198.029 7.46218 198.058 7.91513C198.061 7.97145 198.065 8.0256 198.067 8.08192C198.074 8.20973 198.076 8.33753 198.076 8.4675Z" fill="#2196F3"/>
<path d="M198.076 8.4675V44.1701L192.699 50.01C192.457 49.7544 192.218 49.4952 191.982 49.2324C191.647 48.8641 191.319 48.4901 190.999 48.1103C190.915 48.0128 190.834 47.9175 190.752 47.82C190.538 47.5688 190.33 47.3132 190.122 47.0554C188.24 44.7273 186.562 42.2414 185.107 39.6255C184.925 39.2984 184.747 38.9713 184.572 38.6399C182.992 35.647 181.707 32.5071 180.736 29.2648C180.625 28.8987 180.519 28.5283 180.42 28.1579C179.617 25.2583 179.067 22.2948 178.775 19.3004C178.734 18.878 178.697 18.4578 178.667 18.0354C178.667 18.0246 178.665 18.0116 178.665 18.0008C178.63 17.5415 178.606 17.0823 178.585 16.6187C178.322 11.0138 178.96 5.40301 180.474 0H189.61C189.708 0 189.803 0.00216708 189.901 0.00433324C189.964 0.00649939 190.026 0.00866621 190.089 0.0151647C190.174 0.0173308 190.258 0.0238297 190.34 0.0324943C190.447 0.0389928 190.551 0.0498102 190.655 0.0628071C190.75 0.0758041 190.845 0.0888015 190.941 0.103965C190.96 0.106131 190.977 0.110465 190.997 0.112631H190.999C191.12 0.132127 191.242 0.153788 191.361 0.179781C191.48 0.203609 191.601 0.231767 191.718 0.262093C191.803 0.283755 191.889 0.307584 191.974 0.331412C191.976 0.331412 191.98 0.333577 191.982 0.333577C192.232 0.407226 192.476 0.491708 192.719 0.589185C192.795 0.617345 192.871 0.649835 192.944 0.682328L192.977 0.695324C193.037 0.721318 193.096 0.747314 193.154 0.775474C193.33 0.855622 193.503 0.944432 193.674 1.03758C193.956 1.19277 194.228 1.36344 194.491 1.5488C194.575 1.60729 194.658 1.67011 194.738 1.73292C194.805 1.78275 194.872 1.83473 194.937 1.89105C194.943 1.89393 194.948 1.89757 194.952 1.90188H194.954C194.993 1.93438 195.032 1.96687 195.069 1.99936C195.095 2.02102 195.123 2.04268 195.147 2.06435C195.184 2.09467 195.219 2.12717 195.255 2.15749C195.273 2.17266 195.29 2.18782 195.305 2.20298C195.357 2.25064 195.407 2.29829 195.459 2.34811C195.487 2.37411 195.515 2.4001 195.544 2.42826C195.572 2.45426 195.598 2.48241 195.626 2.51057C195.654 2.53657 195.68 2.56473 195.706 2.59072L195.708 2.59289C195.724 2.60435 195.738 2.61824 195.749 2.63405C195.827 2.71636 195.903 2.80084 195.977 2.88532C196.07 2.99146 196.161 3.09977 196.245 3.21024C196.319 3.30122 196.388 3.3922 196.456 3.48534C196.518 3.56981 196.577 3.65431 196.635 3.74095C196.651 3.7625 196.665 3.78492 196.679 3.8081C196.739 3.89691 196.796 3.98789 196.852 4.07887C196.993 4.30848 197.121 4.54676 197.238 4.78721C197.281 4.87818 197.322 4.967 197.361 5.05797C197.411 5.16845 197.456 5.27892 197.5 5.3894C197.517 5.43055 197.532 5.47388 197.547 5.51503C197.571 5.57785 197.593 5.64067 197.614 5.70349C197.638 5.77281 197.662 5.84429 197.684 5.91361L197.736 6.08257C197.766 6.18437 197.792 6.28402 197.818 6.38583C197.833 6.44648 197.848 6.50713 197.861 6.56995C197.963 7.01233 198.029 7.46218 198.058 7.91513C198.061 7.97145 198.065 8.02561 198.067 8.08193C198.074 8.20973 198.076 8.33753 198.076 8.4675Z" fill="#F4B064"/>
<path opacity="0.2" d="M198.078 19.3006V18.3128H191.982V2.88547H195.979C195.905 2.80099 195.83 2.71651 195.752 2.6342H195.749C195.738 2.6184 195.724 2.6045 195.708 2.59304V2.59088H195.706C195.68 2.56488 195.654 2.53672 195.626 2.51073C195.601 2.48172 195.574 2.45423 195.546 2.42841H195.544C195.515 2.40025 195.487 2.37426 195.459 2.34826C195.407 2.29844 195.357 2.25079 195.305 2.20313C195.29 2.18797 195.273 2.17281 195.255 2.15764C195.219 2.12732 195.184 2.09482 195.147 2.0645C195.123 2.04284 195.095 2.02117 195.069 1.99951C195.032 1.96702 194.993 1.93453 194.954 1.90204H191.982V0.333742C191.98 0.333742 191.976 0.331573 191.974 0.331573C191.889 0.307746 191.803 0.28392 191.718 0.262258C191.601 0.231932 191.48 0.203771 191.361 0.179943C191.242 0.153949 191.12 0.132288 190.999 0.112793V2.88547C190.999 6.4401 189.771 9.88561 187.524 12.6397C185.276 15.3938 182.147 17.2875 178.665 18.0009C178.665 18.0117 178.667 18.0247 178.667 18.0356C178.697 18.458 178.734 18.8782 178.775 19.3006H190.999V38.64H184.572C184.747 38.9715 184.925 39.2985 185.107 39.6256H190.999V48.1105C191.32 48.4895 191.647 48.8636 191.982 49.2325V39.6256H198.078V37.6371H198.076C198.056 37.6436 198.039 37.6501 198.02 37.6566C195.05 38.6552 191.982 36.4024 191.982 33.268V19.3006H198.078Z" fill="black"/>
<path d="M139.381 38.5507C139.129 38.5504 138.886 38.4499 138.708 38.2713C138.529 38.0926 138.429 37.8505 138.428 37.5978V31.1184C138.428 30.9931 138.453 30.869 138.501 30.7533C138.548 30.6375 138.618 30.5323 138.707 30.4437C138.795 30.355 138.901 30.2847 139.016 30.2367C139.132 30.1888 139.256 30.1641 139.381 30.1641C139.507 30.1641 139.631 30.1888 139.746 30.2367C139.862 30.2847 139.967 30.355 140.056 30.4437C140.144 30.5323 140.214 30.6375 140.262 30.7533C140.31 30.869 140.334 30.9931 140.334 31.1184V37.5978C140.334 37.8505 140.233 38.0926 140.055 38.2713C139.876 38.4499 139.634 38.5504 139.381 38.5507V38.5507Z" fill="#2196F3"/>
<path d="M172.79 33.377H165.257C163.632 33.377 162.314 34.6944 162.314 36.3195V36.3195C162.314 37.9446 163.632 39.2621 165.257 39.2621H172.79C174.416 39.2621 175.733 37.9446 175.733 36.3195C175.733 34.6944 174.416 33.377 172.79 33.377Z" fill="#F4B064"/>
<path d="M186.768 45.1475H151.28C149.654 45.1475 148.337 46.4649 148.337 48.09V48.09C148.337 49.7151 149.654 51.0326 151.28 51.0326H186.768C188.393 51.0326 189.71 49.7151 189.71 48.09C189.71 46.4649 188.393 45.1475 186.768 45.1475Z" fill="white"/>
<path d="M186.768 56.9175H151.28C149.654 56.9175 148.337 58.2349 148.337 59.86V59.86C148.337 61.4852 149.654 62.8026 151.28 62.8026H186.768C188.393 62.8026 189.71 61.4852 189.71 59.86C189.71 58.2349 188.393 56.9175 186.768 56.9175Z" fill="white"/>
<path d="M139.191 25.9731C138.938 25.9728 138.696 25.8723 138.517 25.6937C138.339 25.5151 138.238 25.2729 138.238 25.0202V18.5408C138.238 18.2883 138.339 18.0463 138.517 17.8679C138.696 17.6895 138.938 17.5894 139.191 17.5894C139.443 17.5894 139.685 17.6895 139.864 17.8679C140.043 18.0463 140.143 18.2883 140.144 18.5408V25.0202C140.143 25.2729 140.043 25.5151 139.864 25.6937C139.686 25.8723 139.443 25.9728 139.191 25.9731Z" fill="#2196F3"/>
<path d="M162.587 3.14818C162.588 2.89555 162.688 2.65336 162.867 2.47473C163.045 2.29609 163.288 2.19561 163.54 2.19531H170.02C170.272 2.19531 170.515 2.29571 170.693 2.4744C170.872 2.6531 170.973 2.89546 170.973 3.14818C170.973 3.40089 170.872 3.64326 170.693 3.82195C170.515 4.00065 170.272 4.10104 170.02 4.10104H163.54C163.288 4.10074 163.045 4.00026 162.867 3.82163C162.688 3.64299 162.588 3.4008 162.587 3.14818V3.14818Z" fill="white"/>
<path d="M139.381 49.6039C139.129 49.6036 138.886 49.5031 138.708 49.3245C138.529 49.1459 138.429 48.9037 138.428 48.6511V42.1716C138.428 42.0463 138.453 41.9223 138.501 41.8065C138.548 41.6907 138.618 41.5855 138.707 41.4969C138.795 41.4083 138.901 41.3379 139.016 41.29C139.132 41.242 139.256 41.2173 139.381 41.2173C139.507 41.2173 139.631 41.242 139.746 41.29C139.862 41.3379 139.967 41.4083 140.056 41.4969C140.144 41.5855 140.214 41.6907 140.262 41.8065C140.31 41.9223 140.334 42.0463 140.334 42.1716V48.6511C140.334 48.9037 140.233 49.1459 140.055 49.3245C139.876 49.5031 139.634 49.6036 139.381 49.6039V49.6039Z" fill="#2196F3"/>
<path d="M198.734 35.5238C198.481 35.5236 198.239 35.4231 198.06 35.2444C197.882 35.0658 197.781 34.8236 197.781 34.571V28.0915C197.781 27.9663 197.805 27.8422 197.853 27.7264C197.901 27.6106 197.971 27.5054 198.06 27.4168C198.148 27.3282 198.253 27.2579 198.369 27.2099C198.485 27.1619 198.609 27.1372 198.734 27.1372C198.859 27.1372 198.983 27.1619 199.099 27.2099C199.215 27.2579 199.32 27.3282 199.408 27.4168C199.497 27.5054 199.567 27.6106 199.615 27.7264C199.662 27.8422 199.687 27.9663 199.687 28.0915V34.571C199.687 34.8236 199.586 35.0658 199.407 35.2444C199.229 35.4231 198.987 35.5236 198.734 35.5238V35.5238Z" fill="#2196F3"/>
<path d="M173.641 4.10104C174.167 4.10104 174.593 3.67442 174.593 3.14817C174.593 2.62192 174.167 2.19531 173.641 2.19531C173.114 2.19531 172.688 2.62192 172.688 3.14817C172.688 3.67442 173.114 4.10104 173.641 4.10104Z" fill="white"/>
<path d="M188.395 116.499C187.573 117.208 186.71 117.865 185.808 118.469C185.293 118.815 184.764 119.142 184.227 119.452C181.103 121.256 177.652 122.423 174.074 122.885H148.435C146.395 122.887 144.423 122.149 142.886 120.808C142.125 120.145 141.487 119.353 141.001 118.469C140.323 117.227 139.969 115.835 139.97 114.42V67.709C140.949 67.7783 141.921 67.8758 142.886 68.0014C143.215 68.0426 143.542 68.0881 143.869 68.1379C150.565 69.1264 157.003 71.4126 162.823 74.8681C163.152 75.0631 163.482 75.2624 163.807 75.4682C166.72 77.283 169.448 79.3798 171.951 81.7283C172.296 82.0511 172.636 82.3796 172.972 82.7139C178.485 88.1635 182.721 94.7688 185.373 102.053C185.492 102.38 185.607 102.71 185.719 103.041C187.2 107.39 188.1 111.915 188.395 116.499Z" fill="#F4B064"/>
<path opacity="0.2" d="M163.807 118.469C163.807 116.442 164.206 114.436 164.981 112.564C165.757 110.692 166.893 108.992 168.326 107.559C169.759 106.126 171.46 104.99 173.332 104.215C175.204 103.44 177.21 103.041 179.236 103.041H185.719C185.607 102.71 185.491 102.381 185.373 102.053H163.807V82.714H172.972C172.636 82.3804 172.296 82.0519 171.951 81.7284H163.807V75.4682C163.482 75.2624 163.152 75.0631 162.823 74.8682V81.7284H143.869V68.1379C143.542 68.0881 143.215 68.0426 142.886 68.0015V81.7284H139.97V82.714H142.886V102.053H139.97V103.041H142.886V118.469H141.001C141.189 118.81 141.4 119.139 141.632 119.452H142.886V120.808C143.195 121.078 143.524 121.325 143.869 121.547V119.452H162.823V122.885H163.807V119.452H184.227C184.764 119.142 185.293 118.815 185.808 118.469L163.807 118.469ZM162.823 118.469H143.869V103.041H162.823V118.469ZM162.823 102.053H143.869V101.67C143.869 96.6429 145.866 91.8216 149.421 88.2667C152.975 84.7118 157.796 82.7145 162.823 82.714V102.053Z" fill="black"/>
<path d="M159.468 92.3988C159.468 93.2151 159.197 94.0084 158.697 94.6541C158.198 95.2997 157.498 95.7611 156.708 95.9657C155.917 96.1704 155.082 96.1067 154.331 95.7847C153.581 95.4627 152.959 94.9007 152.563 94.1868C152.167 93.473 152.019 92.6478 152.143 91.8409C152.267 91.034 152.656 90.2911 153.248 89.7289C153.84 89.1668 154.601 88.8171 155.414 88.735C156.226 88.6529 157.042 88.8429 157.735 89.2752C157.015 90.1174 156.417 91.0575 155.961 92.0674C156.772 91.2554 157.811 90.708 158.939 90.4969C159.286 91.0704 159.469 91.7283 159.468 92.3988Z" fill="#647380"/>
<path d="M172.027 113.415C171.45 112.838 171.08 112.085 170.977 111.275C170.874 110.466 171.042 109.645 171.456 108.941C171.871 108.237 172.507 107.691 173.265 107.389C174.023 107.086 174.86 107.044 175.645 107.268C176.43 107.493 177.118 107.972 177.601 108.63C178.084 109.288 178.334 110.088 178.313 110.904C178.292 111.721 178.001 112.506 177.484 113.139C176.968 113.771 176.256 114.214 175.461 114.398C175.375 113.293 175.132 112.206 174.741 111.169C174.741 112.317 174.394 113.439 173.746 114.386C173.094 114.226 172.5 113.89 172.027 113.415V113.415Z" fill="#647380"/>
<path d="M193.861 11.5244H144.186C144.129 11.5231 144.074 11.4993 144.034 11.4582C143.994 11.4171 143.971 11.3619 143.971 11.3044C143.971 11.2469 143.994 11.1917 144.034 11.1506C144.074 11.1095 144.129 11.0857 144.186 11.0845H193.861C193.919 11.0857 193.973 11.1095 194.014 11.1506C194.054 11.1917 194.076 11.2469 194.076 11.3044C194.076 11.3619 194.054 11.4171 194.014 11.4582C193.973 11.4993 193.919 11.5231 193.861 11.5244Z" fill="white"/>
<path d="M147.951 9.96153C148.663 9.96153 149.24 9.37159 149.24 8.64385C149.24 7.91612 148.663 7.32617 147.951 7.32617C147.239 7.32617 146.662 7.91612 146.662 8.64385C146.662 9.37159 147.239 9.96153 147.951 9.96153Z" fill="white"/>
<path d="M152.404 9.96153C153.116 9.96153 153.693 9.37159 153.693 8.64385C153.693 7.91612 153.116 7.32617 152.404 7.32617C151.692 7.32617 151.115 7.91612 151.115 8.64385C151.115 9.37159 151.692 9.96153 152.404 9.96153Z" fill="white"/>
<path d="M156.857 9.96153C157.568 9.96153 158.146 9.37159 158.146 8.64385C158.146 7.91612 157.568 7.32617 156.857 7.32617C156.145 7.32617 155.568 7.91612 155.568 8.64385C155.568 9.37159 156.145 9.96153 156.857 9.96153Z" fill="white"/>
<path d="M191.18 7.65283H188.017C187.955 7.65408 187.895 7.67986 187.851 7.72464C187.807 7.76942 187.783 7.82962 187.783 7.89233C187.783 7.95503 187.807 8.01524 187.851 8.06001C187.895 8.10479 187.955 8.13057 188.017 8.13182H191.18C191.243 8.13057 191.303 8.10479 191.347 8.06001C191.39 8.01524 191.415 7.95503 191.415 7.89233C191.415 7.82962 191.39 7.76942 191.347 7.72464C191.303 7.67986 191.243 7.65408 191.18 7.65283V7.65283Z" fill="white"/>
<path d="M191.18 8.55176H188.017C187.955 8.55301 187.895 8.57879 187.851 8.62357C187.807 8.66835 187.783 8.72855 187.783 8.79125C187.783 8.85396 187.807 8.91416 187.851 8.95894C187.895 9.00372 187.955 9.0295 188.017 9.03075H191.18C191.243 9.0295 191.303 9.00372 191.347 8.95894C191.39 8.91416 191.415 8.85396 191.415 8.79125C191.415 8.72855 191.39 8.66835 191.347 8.62357C191.303 8.57879 191.243 8.55301 191.18 8.55176V8.55176Z" fill="white"/>
<path d="M191.18 9.44971H188.017C187.955 9.45096 187.895 9.47674 187.851 9.52152C187.807 9.5663 187.783 9.6265 187.783 9.68921C187.783 9.75191 187.807 9.81211 187.851 9.85689C187.895 9.90167 187.955 9.92745 188.017 9.9287H191.18C191.243 9.92745 191.303 9.90167 191.347 9.85689C191.39 9.81211 191.415 9.75191 191.415 9.68921C191.415 9.6265 191.39 9.5663 191.347 9.52152C191.303 9.47674 191.243 9.45096 191.18 9.44971V9.44971Z" fill="white"/>
</svg>
